<svg width="18" height="19" viewBox="0 0 18 19" fill="none" xmlns="http://www.w3.org/2000/svg">
<path d="M7.07041 7.67146L5.9618 7.55085C5.91006 8.10279 5.78817 8.55548 5.59612 8.90893C5.40407 9.26237 5.10611 9.54818 4.70224 9.76636C4.29891 9.98454 3.84452 10.0932 3.33907 10.0924C2.89024 10.0924 2.49449 10.0102 2.15184 9.84593C1.80851 9.67842 1.55192 9.45312 1.38452 9.16563C1.21775 8.88061 1.13045 8.55372 1.1322 8.22089C1.1322 7.87435 1.21347 7.5741 1.37599 7.31467C1.53851 7.05524 1.80424 6.83978 2.17439 6.66557C2.41431 6.54999 2.93967 6.37034 3.75676 6.12641C4.57385 5.88247 5.14471 5.65403 5.47159 5.43837C5.89557 5.16365 6.21208 4.81963 6.42113 4.41238C6.63018 4.00512 6.73135 3.5472 6.73135 3.03902C6.73445 2.49479 6.60353 1.95865 6.35084 1.48077C6.09635 0.995558 5.72472 0.627598 5.23593 0.376894C4.74551 0.125631 4.2037 0 3.60581 0C2.94597 0 2.36657 0.130866 1.86214 0.39532C1.36813 0.648927 0.962677 1.05431 0.701719 1.55552C0.432742 2.06642 0.285861 2.64663 0.265343 3.29342L1.39265 3.39811C1.45481 2.70233 1.65959 2.17363 2.00902 1.81935C2.35845 1.46507 2.87365 1.28542 3.55624 1.28542C4.26729 1.28542 4.78492 1.44727 5.1118 1.77056C5.43867 2.09385 5.59937 2.48436 5.59937 2.93872C5.59937 3.33656 5.48425 3.66257 5.25401 3.91676C5.02647 4.17347 4.43692 4.43541 3.48128 4.70238C2.52564 4.96934 1.87006 5.2049 1.51413 5.4057C0.997038 5.70345 0.61504 6.07825 0.368139 6.5301C0.122051 6.98447 -0.000654231 7.5073 2.29511e-05 8.09861C-0.00206356 8.67781 0.137687 9.2482 0.406332 9.75694C0.677205 10.2755 1.06611 10.6794 1.57305 10.9687C2.07999 11.2579 2.65024 11.4017 3.28381 11.4C4.08851 11.4 4.76278 11.2563 5.3048 10.9636C5.84681 10.6709 6.27425 10.2389 6.58548 9.65266C6.89672 9.06639 7.057 8.40766 7.07143 7.67083L7.07041 7.67146Z" transform="translate(5.14281 3.79999)" fill="#EF4123"/>
<path fill-rule="evenodd" clip-rule="evenodd" d="M0 0H8.09091V0.806624H0V0ZM0 1.67455H8.09091V2.48135H0V1.67455Z" transform="translate(4.69907 7.79657)" fill="#EF4123"/>
<path d="M0.578249 13.6663C0.516667 13.7041 0.278142 14.4631 0.278142 14.4631C1.53145 16.4992 3.51179 17.9912 5.824 18.6413C8.1362 19.2914 10.6103 19.0519 12.7525 17.9706C15.031 16.8244 16.7247 14.8655 17.5199 12.4549C18.3151 10.0444 18.1176 7.47031 16.9634 5.20711C15.8092 2.94391 13.8365 1.26266 11.4088 0.472792C9.81439 -0.0464172 8.1105 -0.139886 6.46823 0.201772C4.82596 0.543431 3.30314 1.30819 2.05271 2.41923L0.296412 1.28304L0 6.75505L4.92117 4.27435L3.26053 3.19911C5.41074 1.45039 8.28598 0.901869 10.9787 1.77755C12.5162 2.2777 13.8699 3.21936 14.8684 4.48346C15.867 5.74755 16.4657 7.2773 16.5887 8.87925C16.7118 10.4812 16.3537 12.0834 15.5597 13.4833C14.7657 14.8831 13.5716 16.0178 12.1282 16.7437C10.1782 17.7239 7.96124 17.8919 5.88553 17.2164C4.04179 16.6172 2.47241 15.387 1.45743 13.7452C1.45743 13.7452 0.619098 13.6286 0.557106 13.6663" fill="#EF4123"/>
</svg>
