<svg width="178" height="24" viewBox="0 0 178 24" fill="none" xmlns="http://www.w3.org/2000/svg">
<rect width="178" height="24" fill="black" fill-opacity="0"/>
<rect width="178" height="24" fill="black" fill-opacity="0"/>
<path d="M4.60344 3.74026V11.2208H15.6517V14.6493H4.60344V24H0V0H17.4931V3.74026H4.60344Z" fill="#E54415"/>
<path d="M30.5059 22.6909C28.8793 21.8181 27.6211 20.6026 26.7004 19.0753C25.7797 17.548 25.3193 15.8026 25.3193 13.9013C25.3193 12 25.7797 10.2545 26.7004 8.72725C27.6211 7.19998 28.8793 5.9844 30.5059 5.11167C32.1324 4.23894 33.9124 3.80258 35.9072 3.80258C37.9328 3.80258 39.7434 4.23894 41.37 5.11167C42.9965 5.9844 44.2548 7.16881 45.1755 8.72725C46.0962 10.2545 46.5565 12 46.5565 13.9013C46.5565 15.8026 46.0962 17.548 45.1755 19.0753C44.2548 20.6026 42.9965 21.8181 41.37 22.6909C39.7434 23.5636 37.9328 24 35.9072 24C33.9124 24 32.1017 23.5636 30.5059 22.6909ZM39.191 19.5117C40.1424 18.9506 40.9097 18.1714 41.4314 17.2052C41.9838 16.2389 42.2293 15.1169 42.2293 13.9013C42.2293 12.6857 41.9531 11.5636 41.4314 10.5974C40.879 9.63115 40.1424 8.85193 39.191 8.32206C38.209 7.76102 37.1348 7.4805 35.9072 7.4805C34.7104 7.4805 33.6362 7.76102 32.6848 8.32206C31.7335 8.8831 30.9662 9.63115 30.4138 10.5974C29.8614 11.5636 29.5852 12.6545 29.5852 13.9013C29.5852 15.1169 29.8614 16.2389 30.4138 17.2052C30.9662 18.1714 31.7335 18.9506 32.6848 19.5117C33.6362 20.0727 34.7104 20.3532 35.9072 20.3532C37.1348 20.3532 38.209 20.0727 39.191 19.5117Z" fill="#E54415"/>
<path d="M67.7012 24L62.8829 17.174L58.0033 24H53.1543L60.5198 14.026L53.5226 4.36365H58.3102L62.9136 10.7844L67.517 4.36365H72.2125L65.1846 13.9325L72.6115 24H67.7012Z" fill="#E54415"/>
<path d="M87.772 7.79221H81.3271V4.36365H97.8995V7.79221H91.7616V24H87.772V7.79221Z" fill="#E54415"/>
<path d="M121.009 24L117.142 18.3896H116.805H112.938V24H108.948V4.36365H116.805C119.413 4.36365 121.47 4.86235 122.973 6.1091C124.477 7.35585 125.214 9.0078 125.214 11.2208C125.214 12.6857 124.876 13.9013 124.17 14.961C123.464 16.0208 122.482 16.9558 121.163 17.5169L125.582 24H121.009ZM119.812 8.44676C119.076 7.85455 117.971 7.48053 116.498 7.48053H112.938V14.961H116.498C117.94 14.961 119.045 14.5558 119.812 13.9325C120.549 13.3091 120.948 12.3429 120.948 11.1896C120.948 10.0364 120.58 9.07014 119.812 8.44676Z" fill="#E54415"/>
<path d="M138.41 22.6909C136.784 21.8181 135.525 20.6026 134.605 19.0753C133.684 17.548 133.224 15.8026 133.224 13.9013C133.224 12 133.684 10.2545 134.605 8.72725C135.525 7.19998 136.784 5.9844 138.41 5.11167C140.037 4.23894 141.817 3.80258 143.812 3.80258C145.837 3.80258 147.648 4.23894 149.274 5.11167C150.901 5.9844 152.159 7.16881 153.08 8.72725C154 10.2545 154.461 12 154.461 13.9013C154.461 15.8026 154 17.548 153.08 19.0753C152.159 20.6026 150.901 21.8181 149.274 22.6909C147.648 23.5636 145.837 24 143.812 24C141.847 24 140.037 23.5636 138.41 22.6909ZM147.095 19.5117C148.047 18.9506 148.814 18.1714 149.336 17.2052C149.888 16.2389 150.134 15.1169 150.134 13.9013C150.134 12.6857 149.857 11.5636 149.336 10.5974C148.783 9.63115 148.047 8.85193 147.095 8.32206C146.144 7.76102 145.039 7.51167 143.842 7.51167C142.645 7.51167 141.571 7.79219 140.62 8.35323C139.668 8.91426 138.901 9.66231 138.349 10.6285C137.796 11.5948 137.52 12.6857 137.52 13.9324C137.52 15.148 137.796 16.2701 138.349 17.2363C138.901 18.2026 139.668 18.9818 140.62 19.5428C141.571 20.1039 142.645 20.3844 143.842 20.3844C145.039 20.3532 146.144 20.0727 147.095 19.5117Z" fill="#E54415"/>
<path d="M167.873 7.79221H161.121V4.36365H178V7.79221H171.862V24H167.873V7.79221Z" fill="#E54415"/>
</svg>
